<svg xmlns="http://www.w3.org/2000/svg" xmlns:xlink="http://www.w3.org/1999/xlink" width="100" height="100" viewBox="0 0 100 100"><g transform="translate(50 50) scale(0.69 0.69) rotate(-30) translate(-50 -50)" style="fill:#000000"><svg fill="#000000" xmlns="http://www.w3.org/2000/svg" xmlns:xlink="http://www.w3.org/1999/xlink" version="1.1" x="0px" y="0px" viewBox="0 0 100 100" enable-background="new 0 0 100 100" xml:space="preserve"><g><path fill-rule="evenodd" clip-rule="evenodd" d="M37.054,38.146c0.563,0.164,1.139,0.443,1.739,0.747   C39.87,39.438,40.983,40,42.291,40c1.307,0,2.421-0.563,3.498-1.107c0.415-0.21,0.817-0.409,1.214-0.569V13.216   C41.447,14.771,37.002,24.798,37.002,36.5C37.002,37.055,37.034,37.597,37.054,38.146z"></path><path fill-rule="evenodd" clip-rule="evenodd" d="M54.479,40c1.307,0,2.421-0.563,3.498-1.107c0.684-0.346,1.339-0.676,1.976-0.818   c0.018-0.526,0.049-1.052,0.049-1.574c0-12.396-4.987-22.915-10.999-23.474v25.047c0.638,0.143,1.293,0.473,1.979,0.819   C52.059,39.438,53.173,40,54.479,40z"></path><path fill-rule="evenodd" clip-rule="evenodd" d="M68.751,20.402c-4.949-5.812-12.432-9.304-20.065-9.394   c7.481,0.18,13.316,11.309,13.316,25.491c0,0.604-0.034,1.212-0.057,1.819c0.399,0.16,0.806,0.361,1.224,0.573   C64.246,39.438,65.36,40,66.667,40l0.693,0.001c0.368,0,0.795-0.001,1.247-0.017L49.018,59.6L28.265,39.702   C29.213,39.906,29.952,40,30.103,40c1.307,0,2.421-0.563,3.498-1.107c0.5-0.253,0.982-0.489,1.455-0.658   c-0.021-0.578-0.054-1.15-0.054-1.734c0-14.271,5.907-25.454,13.456-25.498c-0.025,0-0.049-0.002-0.073-0.002   c-13.996,0-25.383,11.439-25.383,25.5c0,0.093,0.026,0.18,0.044,0.269c-0.08,0.334-0.002,0.698,0.264,0.953L47.588,61h2.859   l21.714-21.742c0.81-0.419,1.422-1.071,1.588-2.099C74.701,31.255,72.926,25.304,68.751,20.402z"></path><polygon fill-rule="evenodd" clip-rule="evenodd" points="52.002,69.006 48.502,67.006 45.002,69.006 45.002,61 34.002,61    34.002,86.012 63.002,86.012 63.002,61 52.002,61  "></polygon></g></svg></g></svg>